<svg width="1928" height="1080" viewBox="0 0 1928 1080" fill="none" xmlns="http://www.w3.org/2000/svg">
<g clip-path="url(#clip0_44_48)" filter="url(#filter0_d_44_48)">
<g filter="url(#filter1_i_44_48)">
<path fill-rule="evenodd" clip-rule="evenodd" d="M3146.37 -105.798L3011.08 -73.2684C2875.78 -40.7389 2605.2 24.32 2334.87 122.552C2064.54 220.784 1794.43 348.872 1523.14 319.387C1251.85 289.903 979.364 101.186 708.422 118.144C437.493 136.76 168.103 361.051 33.4209 474.855L-101.274 587L-107 -177.643L28.5271 -178.658C164.054 -179.673 435.108 -181.703 706.162 -183.732C977.216 -185.762 1248.27 -187.792 1519.32 -189.822C1790.38 -191.851 2061.43 -193.881 2332.48 -195.911C2603.54 -197.941 2874.59 -199.97 3010.12 -200.985L3145.65 -202L3146.37 -105.798Z" fill="#B30202"/>
<path fill-rule="evenodd" clip-rule="evenodd" d="M3146.37 -105.798L3011.08 -73.2684C2875.78 -40.7389 2605.2 24.32 2334.87 122.552C2064.54 220.784 1794.43 348.872 1523.14 319.387C1251.85 289.903 979.364 101.186 708.422 118.144C437.493 136.76 168.103 361.051 33.4209 474.855L-101.274 587L-107 -177.643L28.5271 -178.658C164.054 -179.673 435.108 -181.703 706.162 -183.732C977.216 -185.762 1248.27 -187.792 1519.32 -189.822C1790.38 -191.851 2061.43 -193.881 2332.48 -195.911C2603.54 -197.941 2874.59 -199.97 3010.12 -200.985L3145.65 -202L3146.37 -105.798Z" stroke="black"/>
</g>
</g>
<defs>
<filter id="filter0_d_44_48" x="0" y="0" width="1928" height="1088" filterUnits="userSpaceOnUse" color-interpolation-filters="sRGB">
<feFlood flood-opacity="0" result="BackgroundImageFix"/>
<feColorMatrix in="SourceAlpha" type="matrix" values="0 0 0 0 0 0 0 0 0 0 0 0 0 0 0 0 0 0 127 0" result="hardAlpha"/>
<feOffset dy="4"/>
<feGaussianBlur stdDeviation="2"/>
<feComposite in2="hardAlpha" operator="out"/>
<feColorMatrix type="matrix" values="0 0 0 0 0 0 0 0 0 0 0 0 0 0 0 0 0 0 0.25 0"/>
<feBlend mode="normal" in2="BackgroundImageFix" result="effect1_dropShadow_44_48"/>
<feBlend mode="normal" in="SourceGraphic" in2="effect1_dropShadow_44_48" result="shape"/>
</filter>
<filter id="filter1_i_44_48" x="-107" y="-202" width="3253.37" height="793" filterUnits="userSpaceOnUse" color-interpolation-filters="sRGB">
<feFlood flood-opacity="0" result="BackgroundImageFix"/>
<feBlend mode="normal" in="SourceGraphic" in2="BackgroundImageFix" result="shape"/>
<feColorMatrix in="SourceAlpha" type="matrix" values="0 0 0 0 0 0 0 0 0 0 0 0 0 0 0 0 0 0 127 0" result="hardAlpha"/>
<feOffset dy="4"/>
<feGaussianBlur stdDeviation="2"/>
<feComposite in2="hardAlpha" operator="arithmetic" k2="-1" k3="1"/>
<feColorMatrix type="matrix" values="0 0 0 0 0 0 0 0 0 0 0 0 0 0 0 0 0 0 0.25 0"/>
<feBlend mode="normal" in2="shape" result="effect1_innerShadow_44_48"/>
</filter>
<clipPath id="clip0_44_48">
<rect width="1920" height="1080" fill="white" transform="translate(4)"/>
</clipPath>
</defs>
</svg>
